<svg width="182" height="41" viewBox="0 0 182 41" fill="none" xmlns="http://www.w3.org/2000/svg">
<path d="M55.1805 31.3593L55.1903 31.3697L55.2007 31.3795C55.7049 31.8557 56.3879 32.06 57.176 32.06H63.384C65.3246 32.06 67.0553 31.8094 68.5682 31.2976L68.5682 31.2977L68.5723 31.2962C70.1028 30.7639 71.4037 29.9935 72.4639 28.979C73.5461 27.9638 74.3552 26.725 74.8923 25.2712C75.4505 23.7968 75.724 22.125 75.724 20.264C75.724 16.5404 74.6588 13.6087 72.463 11.5482C70.2944 9.4931 67.2431 8.5 63.384 8.5H57.176C56.3804 8.5 55.6937 8.7192 55.1904 9.22245C54.7035 9.70941 54.5 10.3899 54.5 11.176V29.384C54.5 30.1721 54.7043 30.8551 55.1805 31.3593Z" fill="#FF9A1E" stroke="#2D2E2D"/>
<path d="M68.6595 20.3663C68.6595 22.6566 67.8311 25.9215 67.49 26.36C67.1489 26.7986 66.7103 26.6037 66.5154 26.5062C66.3205 26.4088 57.6466 21.3896 57.3055 21.0973C57.3055 20.6669 57.3055 20.3663 57.3055 19.7816C57.6466 19.4892 66.3692 14.5676 66.5154 14.5188C66.6616 14.47 67.2951 14.4213 67.49 14.7625C67.6849 15.1036 68.6595 18.0761 68.6595 20.3663Z" fill="white"/>
<path d="M66 23.3645C66 23.6056 66.1954 23.801 66.4365 23.801C66.6776 23.801 66.873 23.6056 66.873 23.3645C66.873 23.1234 66.6776 22.928 66.4365 22.928C66.1954 22.928 66 23.1234 66 23.3645Z" fill="#FF9A1E"/>
<path d="M66 17.3178C66 17.5331 66.1745 17.7077 66.3898 17.7077C66.6051 17.7077 66.7797 17.5331 66.7797 17.3178C66.7797 17.1025 66.6051 16.928 66.3898 16.928C66.1745 16.928 66 17.1025 66 17.3178Z" fill="#FF9A1E"/>
<path d="M63 19.2691C63 19.4575 63.1528 19.6102 63.3411 19.6102C63.5295 19.6102 63.6823 19.4575 63.6823 19.2691C63.6823 19.0807 63.5295 18.928 63.3411 18.928C63.1528 18.928 63 19.0807 63 19.2691Z" fill="#FF9A1E"/>
<path d="M63 22.2691C63 22.4575 63.1528 22.6102 63.3411 22.6102C63.5295 22.6102 63.6823 22.4575 63.6823 22.2691C63.6823 22.0807 63.5295 21.928 63.3411 21.928C63.1528 21.928 63 22.0807 63 22.2691Z" fill="#FF9A1E"/>
<path d="M60 20.3666C60 20.6088 60.1964 20.8051 60.4386 20.8051C60.6808 20.8051 60.8771 20.6088 60.8771 20.3666C60.8771 20.1244 60.6808 19.928 60.4386 19.928C60.1964 19.928 60 20.1244 60 20.3666Z" fill="#FF9A1E"/>
<path d="M66 20.3178C66 20.5331 66.1745 20.7077 66.3898 20.7077C66.6051 20.7077 66.7797 20.5331 66.7797 20.3178C66.7797 20.1025 66.6051 19.928 66.3898 19.928C66.1745 19.928 66 20.1025 66 20.3178Z" fill="#FF9A1E"/>
<path d="M69.6247 13.6887C69.4876 13.4467 69.2134 13.4467 69.1677 13.4467C69.122 13.4467 68.3909 13.8338 68.2995 13.9306C68.2082 14.0274 68.1625 14.2209 68.1625 14.4628C68.1625 14.7048 69.3048 17.0756 69.3048 20.4625C69.3048 23.8494 68.2082 26.2687 68.1625 26.4622C68.1168 26.6557 68.2082 26.946 68.2995 27.0428C68.3909 27.1396 68.9849 27.3815 69.122 27.4299C69.2591 27.4783 69.5333 27.4299 69.6704 27.188C69.8074 26.946 70.9208 23.9607 70.9498 20.656C70.9796 17.2506 69.7618 13.9306 69.6247 13.6887Z" fill="white"/>
<path d="M13.1805 31.3593L13.1903 31.3697L13.2007 31.3795C13.7049 31.8557 14.3879 32.06 15.176 32.06H21.384C23.3246 32.06 25.0553 31.8094 26.5682 31.2976L26.5682 31.2977L26.5723 31.2962C28.1028 30.7639 29.4037 29.9935 30.4639 28.979C31.5461 27.9638 32.3552 26.725 32.8923 25.2712C33.4505 23.7968 33.724 22.125 33.724 20.264C33.724 16.5404 32.6588 13.6087 30.463 11.5482C28.2944 9.4931 25.2431 8.5 21.384 8.5H15.176C14.3804 8.5 13.6937 8.7192 13.1904 9.22245C12.7035 9.70941 12.5 10.3899 12.5 11.176V29.384C12.5 30.1721 12.7043 30.8551 13.1805 31.3593Z" fill="#FF9A1E" stroke="#2D2E2D"/>
<path d="M26.6595 20.3663C26.6595 22.6566 25.8311 25.9215 25.49 26.36C25.1489 26.7986 24.7103 26.6037 24.5154 26.5062C24.3205 26.4088 15.6466 21.3896 15.3055 21.0973C15.3055 20.6669 15.3055 20.3663 15.3055 19.7816C15.6466 19.4892 24.3692 14.5676 24.5154 14.5188C24.6616 14.47 25.2951 14.4213 25.49 14.7625C25.6849 15.1036 26.6595 18.0761 26.6595 20.3663Z" fill="white"/>
<path d="M24 23.3645C24 23.6056 24.1954 23.801 24.4365 23.801C24.6776 23.801 24.873 23.6056 24.873 23.3645C24.873 23.1234 24.6776 22.928 24.4365 22.928C24.1954 22.928 24 23.1234 24 23.3645Z" fill="#FF9A1E"/>
<path d="M24 17.3178C24 17.5331 24.1745 17.7077 24.3898 17.7077C24.6051 17.7077 24.7797 17.5331 24.7797 17.3178C24.7797 17.1025 24.6051 16.928 24.3898 16.928C24.1745 16.928 24 17.1025 24 17.3178Z" fill="#FF9A1E"/>
<path d="M21 19.2691C21 19.4575 21.1528 19.6102 21.3411 19.6102C21.5295 19.6102 21.6823 19.4575 21.6823 19.2691C21.6823 19.0807 21.5295 18.928 21.3411 18.928C21.1528 18.928 21 19.0807 21 19.2691Z" fill="#FF9A1E"/>
<path d="M21 22.2691C21 22.4575 21.1528 22.6102 21.3411 22.6102C21.5295 22.6102 21.6823 22.4575 21.6823 22.2691C21.6823 22.0807 21.5295 21.928 21.3411 21.928C21.1528 21.928 21 22.0807 21 22.2691Z" fill="#FF9A1E"/>
<path d="M18 20.3666C18 20.6088 18.1964 20.8051 18.4386 20.8051C18.6808 20.8051 18.8771 20.6088 18.8771 20.3666C18.8771 20.1244 18.6808 19.928 18.4386 19.928C18.1964 19.928 18 20.1244 18 20.3666Z" fill="#FF9A1E"/>
<path d="M24 20.3178C24 20.5331 24.1745 20.7077 24.3898 20.7077C24.6051 20.7077 24.7797 20.5331 24.7797 20.3178C24.7797 20.1025 24.6051 19.928 24.3898 19.928C24.1745 19.928 24 20.1025 24 20.3178Z" fill="#FF9A1E"/>
<path d="M27.6247 13.6887C27.4876 13.4467 27.2134 13.4467 27.1677 13.4467C27.122 13.4467 26.3909 13.8338 26.2995 13.9306C26.2082 14.0274 26.1625 14.2209 26.1625 14.4628C26.1625 14.7048 27.3048 17.0756 27.3048 20.4625C27.3048 23.8494 26.2082 26.2687 26.1625 26.4622C26.1168 26.6557 26.2082 26.946 26.2995 27.0428C26.3909 27.1396 26.9849 27.3815 27.122 27.4299C27.2591 27.4783 27.5333 27.4299 27.6704 27.188C27.8074 26.946 28.9208 23.9607 28.9498 20.656C28.9796 17.2506 27.7618 13.9306 27.6247 13.6887Z" fill="white"/>
<path d="M41.607 32.392C40.4763 32.392 39.463 32.1787 38.567 31.752C37.6923 31.304 36.999 30.7067 36.487 29.96C35.9963 29.2133 35.751 28.3707 35.751 27.432C35.751 26.28 36.0496 25.3733 36.647 24.712C37.2443 24.0293 38.215 23.5387 39.559 23.24C40.903 22.9413 42.7056 22.792 44.967 22.792H46.567V25.096H44.999C43.6763 25.096 42.6203 25.16 41.831 25.288C41.0416 25.416 40.4763 25.64 40.135 25.96C39.815 26.2587 39.655 26.6853 39.655 27.24C39.655 27.944 39.9003 28.52 40.391 28.968C40.8816 29.416 41.5643 29.64 42.439 29.64C43.143 29.64 43.7616 29.48 44.295 29.16C44.8496 28.8187 45.287 28.36 45.607 27.784C45.927 27.208 46.087 26.5467 46.087 25.8V22.12C46.087 21.0533 45.8523 20.2853 45.383 19.816C44.9136 19.3467 44.1243 19.112 43.015 19.112C42.3963 19.112 41.7243 19.1867 40.999 19.336C40.295 19.4853 39.5483 19.7413 38.759 20.104C38.3536 20.296 37.991 20.3493 37.671 20.264C37.3723 20.1787 37.1376 20.008 36.967 19.752C36.7963 19.4747 36.711 19.176 36.711 18.856C36.711 18.536 36.7963 18.2267 36.967 17.928C37.1376 17.608 37.4256 17.3733 37.831 17.224C38.8123 16.8187 39.751 16.5307 40.647 16.36C41.5643 16.1893 42.3963 16.104 43.143 16.104C44.679 16.104 45.9376 16.3387 46.919 16.808C47.9216 17.2773 48.6683 17.992 49.159 18.952C49.6496 19.8907 49.895 21.1067 49.895 22.6V30.28C49.895 30.9413 49.735 31.4533 49.415 31.816C49.095 32.1573 48.6363 32.328 48.039 32.328C47.4416 32.328 46.9723 32.1573 46.631 31.816C46.311 31.4533 46.151 30.9413 46.151 30.28V28.744H46.407C46.2576 29.4907 45.959 30.1413 45.511 30.696C45.0843 31.2293 44.5403 31.6453 43.879 31.944C43.2176 32.2427 42.4603 32.392 41.607 32.392Z" fill="#2D2E2D"/>
<path d="M83.482 32.392C82.3513 32.392 81.338 32.1787 80.442 31.752C79.5673 31.304 78.874 30.7067 78.362 29.96C77.8713 29.2133 77.626 28.3707 77.626 27.432C77.626 26.28 77.9247 25.3733 78.522 24.712C79.1193 24.0293 80.09 23.5387 81.434 23.24C82.778 22.9413 84.5807 22.792 86.842 22.792H88.442V25.096H86.874C85.5513 25.096 84.4953 25.16 83.706 25.288C82.9166 25.416 82.3513 25.64 82.01 25.96C81.69 26.2587 81.53 26.6853 81.53 27.24C81.53 27.944 81.7753 28.52 82.266 28.968C82.7566 29.416 83.4393 29.64 84.314 29.64C85.018 29.64 85.6366 29.48 86.17 29.16C86.7246 28.8187 87.162 28.36 87.482 27.784C87.802 27.208 87.962 26.5467 87.962 25.8V22.12C87.962 21.0533 87.7273 20.2853 87.258 19.816C86.7887 19.3467 85.9993 19.112 84.89 19.112C84.2713 19.112 83.5993 19.1867 82.874 19.336C82.17 19.4853 81.4233 19.7413 80.634 20.104C80.2287 20.296 79.866 20.3493 79.546 20.264C79.2473 20.1787 79.0127 20.008 78.842 19.752C78.6713 19.4747 78.586 19.176 78.586 18.856C78.586 18.536 78.6713 18.2267 78.842 17.928C79.0127 17.608 79.3006 17.3733 79.706 17.224C80.6873 16.8187 81.626 16.5307 82.522 16.36C83.4393 16.1893 84.2713 16.104 85.018 16.104C86.554 16.104 87.8126 16.3387 88.794 16.808C89.7966 17.2773 90.5433 17.992 91.034 18.952C91.5246 19.8907 91.77 21.1067 91.77 22.6V30.28C91.77 30.9413 91.61 31.4533 91.29 31.816C90.97 32.1573 90.5113 32.328 89.914 32.328C89.3166 32.328 88.8473 32.1573 88.506 31.816C88.186 31.4533 88.026 30.9413 88.026 30.28V28.744H88.282C88.1326 29.4907 87.834 30.1413 87.386 30.696C86.9593 31.2293 86.4153 31.6453 85.754 31.944C85.0926 32.2427 84.3353 32.392 83.482 32.392Z" fill="#2D2E2D"/>
<path d="M98.262 32.328C97.6006 32.328 97.0886 32.1467 96.726 31.784C96.3846 31.4 96.214 30.8773 96.214 30.216V11.592C96.214 10.9093 96.3953 10.3973 96.758 10.056C97.1207 9.69333 97.6326 9.512 98.294 9.512H106.006C108.481 9.512 110.39 10.1307 111.734 11.368C113.078 12.6053 113.75 14.3333 113.75 16.552C113.75 18.7707 113.078 20.5093 111.734 21.768C110.39 23.0053 108.481 23.624 106.006 23.624H100.31V30.216C100.31 30.8773 100.139 31.4 99.798 31.784C99.4567 32.1467 98.9446 32.328 98.262 32.328ZM100.31 20.392H105.366C106.817 20.392 107.915 20.072 108.662 19.432C109.409 18.7707 109.782 17.8107 109.782 16.552C109.782 15.2933 109.409 14.344 108.662 13.704C107.915 13.064 106.817 12.744 105.366 12.744H100.31V20.392Z" fill="#2D2E2D"/>
<path d="M118.689 32.296C118.049 32.296 117.558 32.104 117.217 31.72C116.876 31.336 116.705 30.8027 116.705 30.12V18.376C116.705 17.672 116.876 17.1387 117.217 16.776C117.558 16.392 118.049 16.2 118.689 16.2C119.329 16.2 119.82 16.392 120.161 16.776C120.524 17.1387 120.705 17.672 120.705 18.376V30.12C120.705 30.8027 120.534 31.336 120.193 31.72C119.852 32.104 119.35 32.296 118.689 32.296ZM118.689 13.224C117.942 13.224 117.356 13.0427 116.929 12.68C116.524 12.296 116.321 11.7733 116.321 11.112C116.321 10.4293 116.524 9.90667 116.929 9.544C117.356 9.18133 117.942 9 118.689 9C119.457 9 120.044 9.18133 120.449 9.544C120.854 9.90667 121.057 10.4293 121.057 11.112C121.057 11.7733 120.854 12.296 120.449 12.68C120.044 13.0427 119.457 13.224 118.689 13.224Z" fill="#2D2E2D"/>
<path d="M125.821 32.072C125.416 32.072 125.075 31.976 124.797 31.784C124.541 31.5707 124.371 31.304 124.285 30.984C124.2 30.664 124.2 30.3227 124.285 29.96C124.392 29.576 124.595 29.2133 124.893 28.872L133.181 18.472V19.432H125.629C125.139 19.432 124.755 19.304 124.477 19.048C124.221 18.7707 124.093 18.3973 124.093 17.928C124.093 17.4373 124.221 17.064 124.477 16.808C124.755 16.552 125.139 16.424 125.629 16.424H135.101C135.571 16.424 135.955 16.5307 136.253 16.744C136.552 16.936 136.744 17.192 136.829 17.512C136.936 17.832 136.947 18.1733 136.861 18.536C136.776 18.8987 136.584 19.24 136.285 19.56L127.837 30.12V29.064H135.837C136.861 29.064 137.373 29.5653 137.373 30.568C137.373 31.0373 137.235 31.4107 136.957 31.688C136.701 31.944 136.328 32.072 135.837 32.072H125.821Z" fill="#2D2E2D"/>
<path d="M140.977 32.072C140.572 32.072 140.231 31.976 139.953 31.784C139.697 31.5707 139.527 31.304 139.441 30.984C139.356 30.664 139.356 30.3227 139.441 29.96C139.548 29.576 139.751 29.2133 140.049 28.872L148.337 18.472V19.432H140.785C140.295 19.432 139.911 19.304 139.633 19.048C139.377 18.7707 139.249 18.3973 139.249 17.928C139.249 17.4373 139.377 17.064 139.633 16.808C139.911 16.552 140.295 16.424 140.785 16.424H150.257C150.727 16.424 151.111 16.5307 151.409 16.744C151.708 16.936 151.9 17.192 151.985 17.512C152.092 17.832 152.103 18.1733 152.017 18.536C151.932 18.8987 151.74 19.24 151.441 19.56L142.993 30.12V29.064H150.993C152.017 29.064 152.529 29.5653 152.529 30.568C152.529 31.0373 152.391 31.4107 152.113 31.688C151.857 31.944 151.484 32.072 150.993 32.072H140.977Z" fill="#2D2E2D"/>
<path d="M160.169 32.392C159.039 32.392 158.025 32.1787 157.129 31.752C156.255 31.304 155.561 30.7067 155.049 29.96C154.559 29.2133 154.313 28.3707 154.313 27.432C154.313 26.28 154.612 25.3733 155.209 24.712C155.807 24.0293 156.777 23.5387 158.121 23.24C159.465 22.9413 161.268 22.792 163.529 22.792H165.129V25.096H163.561C162.239 25.096 161.183 25.16 160.393 25.288C159.604 25.416 159.039 25.64 158.697 25.96C158.377 26.2587 158.217 26.6853 158.217 27.24C158.217 27.944 158.463 28.52 158.953 28.968C159.444 29.416 160.127 29.64 161.001 29.64C161.705 29.64 162.324 29.48 162.857 29.16C163.412 28.8187 163.849 28.36 164.169 27.784C164.489 27.208 164.649 26.5467 164.649 25.8V22.12C164.649 21.0533 164.415 20.2853 163.945 19.816C163.476 19.3467 162.687 19.112 161.577 19.112C160.959 19.112 160.287 19.1867 159.561 19.336C158.857 19.4853 158.111 19.7413 157.321 20.104C156.916 20.296 156.553 20.3493 156.233 20.264C155.935 20.1787 155.7 20.008 155.529 19.752C155.359 19.4747 155.273 19.176 155.273 18.856C155.273 18.536 155.359 18.2267 155.529 17.928C155.7 17.608 155.988 17.3733 156.393 17.224C157.375 16.8187 158.313 16.5307 159.209 16.36C160.127 16.1893 160.959 16.104 161.705 16.104C163.241 16.104 164.5 16.3387 165.481 16.808C166.484 17.2773 167.231 17.992 167.721 18.952C168.212 19.8907 168.457 21.1067 168.457 22.6V30.28C168.457 30.9413 168.297 31.4533 167.977 31.816C167.657 32.1573 167.199 32.328 166.601 32.328C166.004 32.328 165.535 32.1573 165.193 31.816C164.873 31.4533 164.713 30.9413 164.713 30.28V28.744H164.969C164.82 29.4907 164.521 30.1413 164.073 30.696C163.647 31.2293 163.103 31.6453 162.441 31.944C161.78 32.2427 161.023 32.392 160.169 32.392Z" fill="#2D2E2D"/>
</svg>
