<svg width="157" height="25" viewBox="0 0 157 25" fill="none" xmlns="http://www.w3.org/2000/svg">
<path d="M43.1805 23.3593L43.1903 23.3697L43.2007 23.3795C43.7049 23.8557 44.3879 24.06 45.176 24.06H51.384C53.3246 24.06 55.0553 23.8094 56.5682 23.2976L56.5682 23.2977L56.5723 23.2962C58.1028 22.7639 59.4037 21.9935 60.4639 20.979C61.5461 19.9638 62.3552 18.725 62.8923 17.2712C63.4505 15.7968 63.724 14.125 63.724 12.264C63.724 8.54042 62.6588 5.60868 60.463 3.54823C58.2944 1.4931 55.2431 0.5 51.384 0.5H45.176C44.3804 0.5 43.6937 0.719197 43.1904 1.22245C42.7035 1.70941 42.5 2.38991 42.5 3.176V21.384C42.5 22.1721 42.7043 22.8551 43.1805 23.3593Z" fill="#FF9A1E" stroke="white"/>
<path d="M56.6595 12.3664C56.6595 14.6567 55.831 17.9215 55.4899 18.3601C55.1488 18.7987 54.7103 18.6037 54.5153 18.5063C54.3204 18.4088 45.6466 13.3897 45.3055 13.0973C45.3055 12.667 45.3055 12.3664 45.3055 11.7816C45.6466 11.4893 54.3692 6.56766 54.5153 6.51886C54.6615 6.47008 55.295 6.42137 55.4899 6.76252C55.6849 7.10364 56.6595 10.0761 56.6595 12.3664Z" fill="white"/>
<path d="M54 15.3645C54 15.6056 54.1954 15.801 54.4365 15.801C54.6776 15.801 54.873 15.6056 54.873 15.3645C54.873 15.1234 54.6776 14.928 54.4365 14.928C54.1954 14.928 54 15.1234 54 15.3645Z" fill="#FF9A1E"/>
<path d="M54 9.31781C54 9.53311 54.1745 9.70765 54.3898 9.70765C54.6051 9.70765 54.7797 9.53311 54.7797 9.31781C54.7797 9.10251 54.6051 8.92798 54.3898 8.92798C54.1745 8.92798 54 9.10251 54 9.31781Z" fill="#FF9A1E"/>
<path d="M51 11.2691C51 11.4575 51.1527 11.6102 51.3411 11.6102C51.5295 11.6102 51.6822 11.4575 51.6822 11.2691C51.6822 11.0807 51.5295 10.928 51.3411 10.928C51.1527 10.928 51 11.0807 51 11.2691Z" fill="#FF9A1E"/>
<path d="M51 14.2691C51 14.4575 51.1527 14.6102 51.3411 14.6102C51.5295 14.6102 51.6822 14.4575 51.6822 14.2691C51.6822 14.0807 51.5295 13.928 51.3411 13.928C51.1527 13.928 51 14.0807 51 14.2691Z" fill="#FF9A1E"/>
<path d="M48 12.3665C48 12.6088 48.1963 12.8051 48.4385 12.8051C48.6808 12.8051 48.8771 12.6088 48.8771 12.3665C48.8771 12.1243 48.6808 11.928 48.4385 11.928C48.1963 11.928 48 12.1243 48 12.3665Z" fill="#FF9A1E"/>
<path d="M54 12.3178C54 12.5331 54.1745 12.7076 54.3898 12.7076C54.6051 12.7076 54.7797 12.5331 54.7797 12.3178C54.7797 12.1025 54.6051 11.928 54.3898 11.928C54.1745 11.928 54 12.1025 54 12.3178Z" fill="#FF9A1E"/>
<path d="M57.6246 5.6887C57.4875 5.44678 57.2134 5.44678 57.1677 5.44678C57.122 5.44678 56.3909 5.83386 56.2995 5.93063C56.2081 6.0274 56.1624 6.22094 56.1624 6.46285C56.1624 6.70479 57.3048 9.07561 57.3048 12.4625C57.3048 15.8495 56.2081 18.2687 56.1624 18.4622C56.1167 18.6558 56.2081 18.9461 56.2995 19.0428C56.3909 19.1396 56.9849 19.3815 57.122 19.4299C57.2591 19.4783 57.5332 19.4299 57.6703 19.188C57.8074 18.9461 58.9208 15.9607 58.9497 12.6561C58.9796 9.25066 57.7617 5.93063 57.6246 5.6887Z" fill="white"/>
<path d="M1.18049 23.3593L1.1903 23.3697L1.20069 23.3795C1.70494 23.8557 2.38786 24.06 3.176 24.06H9.384C11.3246 24.06 13.0553 23.8094 14.5682 23.2976L14.5682 23.2977L14.5723 23.2962C16.1028 22.7639 17.4037 21.9935 18.4639 20.979C19.5461 19.9638 20.3552 18.725 20.8923 17.2712C21.4505 15.7968 21.724 14.125 21.724 12.264C21.724 8.54042 20.6588 5.60868 18.463 3.54823C16.2944 1.4931 13.2431 0.5 9.384 0.5H3.176C2.38039 0.5 1.6937 0.719197 1.19045 1.22245C0.703487 1.70941 0.5 2.38991 0.5 3.176V21.384C0.5 22.1721 0.704258 22.8551 1.18049 23.3593Z" fill="#FF9A1E" stroke="white"/>
<path d="M14.6595 12.3664C14.6595 14.6567 13.831 17.9215 13.4899 18.3601C13.1488 18.7987 12.7103 18.6037 12.5153 18.5063C12.3204 18.4088 3.6466 13.3897 3.30551 13.0973C3.30551 12.667 3.30551 12.3664 3.30551 11.7816C3.6466 11.4893 12.3692 6.56766 12.5153 6.51886C12.6615 6.47008 13.295 6.42137 13.4899 6.76252C13.6849 7.10364 14.6595 10.0761 14.6595 12.3664Z" fill="white"/>
<path d="M12 15.3645C12 15.6056 12.1954 15.801 12.4365 15.801C12.6776 15.801 12.873 15.6056 12.873 15.3645C12.873 15.1234 12.6776 14.928 12.4365 14.928C12.1954 14.928 12 15.1234 12 15.3645Z" fill="#FF9A1E"/>
<path d="M12 9.31781C12 9.53311 12.1745 9.70765 12.3898 9.70765C12.6051 9.70765 12.7797 9.53311 12.7797 9.31781C12.7797 9.10251 12.6051 8.92798 12.3898 8.92798C12.1745 8.92798 12 9.10251 12 9.31781Z" fill="#FF9A1E"/>
<path d="M8.99998 11.2691C8.99998 11.4575 9.1527 11.6102 9.34108 11.6102C9.52947 11.6102 9.68219 11.4575 9.68219 11.2691C9.68219 11.0807 9.52947 10.928 9.34108 10.928C9.1527 10.928 8.99998 11.0807 8.99998 11.2691Z" fill="#FF9A1E"/>
<path d="M8.99998 14.2691C8.99998 14.4575 9.1527 14.6102 9.34108 14.6102C9.52947 14.6102 9.68219 14.4575 9.68219 14.2691C9.68219 14.0807 9.52947 13.928 9.34108 13.928C9.1527 13.928 8.99998 14.0807 8.99998 14.2691Z" fill="#FF9A1E"/>
<path d="M5.99998 12.3665C5.99998 12.6088 6.19633 12.8051 6.43854 12.8051C6.68075 12.8051 6.87711 12.6088 6.87711 12.3665C6.87711 12.1243 6.68075 11.928 6.43854 11.928C6.19633 11.928 5.99998 12.1243 5.99998 12.3665Z" fill="#FF9A1E"/>
<path d="M12 12.3178C12 12.5331 12.1745 12.7076 12.3898 12.7076C12.6051 12.7076 12.7797 12.5331 12.7797 12.3178C12.7797 12.1025 12.6051 11.928 12.3898 11.928C12.1745 11.928 12 12.1025 12 12.3178Z" fill="#FF9A1E"/>
<path d="M15.6246 5.6887C15.4875 5.44678 15.2134 5.44678 15.1677 5.44678C15.122 5.44678 14.3909 5.83386 14.2995 5.93063C14.2081 6.0274 14.1624 6.22094 14.1624 6.46285C14.1624 6.70479 15.3048 9.07561 15.3048 12.4625C15.3048 15.8495 14.2081 18.2687 14.1624 18.4622C14.1167 18.6558 14.2081 18.9461 14.2995 19.0428C14.3909 19.1396 14.9849 19.3815 15.122 19.4299C15.2591 19.4783 15.5332 19.4299 15.6703 19.188C15.8074 18.9461 16.9208 15.9607 16.9497 12.6561C16.9796 9.25066 15.7617 5.93063 15.6246 5.6887Z" fill="white"/>
<path d="M29.607 24.392C28.4763 24.392 27.463 24.1787 26.567 23.752C25.6923 23.304 24.999 22.7067 24.487 21.96C23.9963 21.2133 23.751 20.3707 23.751 19.432C23.751 18.28 24.0497 17.3733 24.647 16.712C25.2443 16.0293 26.215 15.5387 27.559 15.24C28.903 14.9413 30.7057 14.792 32.967 14.792H34.567V17.096H32.999C31.6763 17.096 30.6203 17.16 29.831 17.288C29.0417 17.416 28.4763 17.64 28.135 17.96C27.815 18.2587 27.655 18.6853 27.655 19.24C27.655 19.944 27.9003 20.52 28.391 20.968C28.8817 21.416 29.5643 21.64 30.439 21.64C31.143 21.64 31.7617 21.48 32.295 21.16C32.8497 20.8187 33.287 20.36 33.607 19.784C33.927 19.208 34.087 18.5467 34.087 17.8V14.12C34.087 13.0533 33.8523 12.2853 33.383 11.816C32.9137 11.3467 32.1243 11.112 31.015 11.112C30.3963 11.112 29.7243 11.1867 28.999 11.336C28.295 11.4853 27.5483 11.7413 26.759 12.104C26.3537 12.296 25.991 12.3493 25.671 12.264C25.3723 12.1787 25.1377 12.008 24.967 11.752C24.7963 11.4747 24.711 11.176 24.711 10.856C24.711 10.536 24.7963 10.2267 24.967 9.928C25.1377 9.608 25.4257 9.37333 25.831 9.224C26.8123 8.81867 27.751 8.53067 28.647 8.36C29.5643 8.18933 30.3963 8.104 31.143 8.104C32.679 8.104 33.9377 8.33867 34.919 8.808C35.9217 9.27733 36.6683 9.992 37.159 10.952C37.6497 11.8907 37.895 13.1067 37.895 14.6V22.28C37.895 22.9413 37.735 23.4533 37.415 23.816C37.095 24.1573 36.6363 24.328 36.039 24.328C35.4417 24.328 34.9723 24.1573 34.631 23.816C34.311 23.4533 34.151 22.9413 34.151 22.28V20.744H34.407C34.2577 21.4907 33.959 22.1413 33.511 22.696C33.0843 23.2293 32.5403 23.6453 31.879 23.944C31.2177 24.2427 30.4603 24.392 29.607 24.392Z" fill="white"/>
<path d="M71.482 24.392C70.3513 24.392 69.338 24.1787 68.442 23.752C67.5673 23.304 66.874 22.7067 66.362 21.96C65.8713 21.2133 65.626 20.3707 65.626 19.432C65.626 18.28 65.9247 17.3733 66.522 16.712C67.1193 16.0293 68.09 15.5387 69.434 15.24C70.778 14.9413 72.5807 14.792 74.842 14.792H76.442V17.096H74.874C73.5513 17.096 72.4953 17.16 71.706 17.288C70.9167 17.416 70.3513 17.64 70.01 17.96C69.69 18.2587 69.53 18.6853 69.53 19.24C69.53 19.944 69.7753 20.52 70.266 20.968C70.7567 21.416 71.4393 21.64 72.314 21.64C73.018 21.64 73.6367 21.48 74.17 21.16C74.7247 20.8187 75.162 20.36 75.482 19.784C75.802 19.208 75.962 18.5467 75.962 17.8V14.12C75.962 13.0533 75.7273 12.2853 75.258 11.816C74.7887 11.3467 73.9993 11.112 72.89 11.112C72.2713 11.112 71.5993 11.1867 70.874 11.336C70.17 11.4853 69.4233 11.7413 68.634 12.104C68.2287 12.296 67.866 12.3493 67.546 12.264C67.2473 12.1787 67.0127 12.008 66.842 11.752C66.6713 11.4747 66.586 11.176 66.586 10.856C66.586 10.536 66.6713 10.2267 66.842 9.928C67.0127 9.608 67.3007 9.37333 67.706 9.224C68.6873 8.81867 69.626 8.53067 70.522 8.36C71.4393 8.18933 72.2713 8.104 73.018 8.104C74.554 8.104 75.8127 8.33867 76.794 8.808C77.7967 9.27733 78.5433 9.992 79.034 10.952C79.5247 11.8907 79.77 13.1067 79.77 14.6V22.28C79.77 22.9413 79.61 23.4533 79.29 23.816C78.97 24.1573 78.5113 24.328 77.914 24.328C77.3167 24.328 76.8473 24.1573 76.506 23.816C76.186 23.4533 76.026 22.9413 76.026 22.28V20.744H76.282C76.1327 21.4907 75.834 22.1413 75.386 22.696C74.9593 23.2293 74.4153 23.6453 73.754 23.944C73.0927 24.2427 72.3353 24.392 71.482 24.392Z" fill="white"/>
<path d="M86.262 24.328C85.6007 24.328 85.0887 24.1467 84.726 23.784C84.3847 23.4 84.214 22.8773 84.214 22.216V3.592C84.214 2.90933 84.3953 2.39733 84.758 2.056C85.1207 1.69333 85.6327 1.512 86.294 1.512H94.006C96.4807 1.512 98.39 2.13067 99.734 3.368C101.078 4.60533 101.75 6.33333 101.75 8.552C101.75 10.7707 101.078 12.5093 99.734 13.768C98.39 15.0053 96.4807 15.624 94.006 15.624H88.31V22.216C88.31 22.8773 88.1394 23.4 87.798 23.784C87.4567 24.1467 86.9447 24.328 86.262 24.328ZM88.31 12.392H93.366C94.8167 12.392 95.9154 12.072 96.662 11.432C97.4087 10.7707 97.782 9.81067 97.782 8.552C97.782 7.29333 97.4087 6.344 96.662 5.704C95.9154 5.064 94.8167 4.744 93.366 4.744H88.31V12.392Z" fill="white"/>
<path d="M106.689 24.296C106.049 24.296 105.558 24.104 105.217 23.72C104.876 23.336 104.705 22.8027 104.705 22.12V10.376C104.705 9.672 104.876 9.13867 105.217 8.776C105.558 8.392 106.049 8.2 106.689 8.2C107.329 8.2 107.82 8.392 108.161 8.776C108.524 9.13867 108.705 9.672 108.705 10.376V22.12C108.705 22.8027 108.534 23.336 108.193 23.72C107.852 24.104 107.35 24.296 106.689 24.296ZM106.689 5.224C105.942 5.224 105.356 5.04267 104.929 4.68C104.524 4.296 104.321 3.77333 104.321 3.112C104.321 2.42933 104.524 1.90667 104.929 1.544C105.356 1.18133 105.942 1 106.689 1C107.457 1 108.044 1.18133 108.449 1.544C108.854 1.90667 109.057 2.42933 109.057 3.112C109.057 3.77333 108.854 4.296 108.449 4.68C108.044 5.04267 107.457 5.224 106.689 5.224Z" fill="white"/>
<path d="M113.821 24.072C113.416 24.072 113.075 23.976 112.797 23.784C112.541 23.5707 112.371 23.304 112.285 22.984C112.2 22.664 112.2 22.3227 112.285 21.96C112.392 21.576 112.595 21.2133 112.893 20.872L121.181 10.472V11.432H113.629C113.139 11.432 112.755 11.304 112.477 11.048C112.221 10.7707 112.093 10.3973 112.093 9.928C112.093 9.43733 112.221 9.064 112.477 8.808C112.755 8.552 113.139 8.424 113.629 8.424H123.101C123.571 8.424 123.955 8.53067 124.253 8.744C124.552 8.936 124.744 9.192 124.829 9.512C124.936 9.832 124.947 10.1733 124.861 10.536C124.776 10.8987 124.584 11.24 124.285 11.56L115.837 22.12V21.064H123.837C124.861 21.064 125.373 21.5653 125.373 22.568C125.373 23.0373 125.235 23.4107 124.957 23.688C124.701 23.944 124.328 24.072 123.837 24.072H113.821Z" fill="white"/>
<path d="M128.977 24.072C128.572 24.072 128.231 23.976 127.954 23.784C127.698 23.5707 127.527 23.304 127.442 22.984C127.356 22.664 127.356 22.3227 127.442 21.96C127.548 21.576 127.751 21.2133 128.05 20.872L136.337 10.472V11.432H128.786C128.295 11.432 127.911 11.304 127.634 11.048C127.378 10.7707 127.25 10.3973 127.25 9.928C127.25 9.43733 127.378 9.064 127.634 8.808C127.911 8.552 128.295 8.424 128.786 8.424H138.258C138.727 8.424 139.111 8.53067 139.41 8.744C139.708 8.936 139.9 9.192 139.986 9.512C140.092 9.832 140.103 10.1733 140.018 10.536C139.932 10.8987 139.74 11.24 139.441 11.56L130.993 22.12V21.064H138.993C140.018 21.064 140.529 21.5653 140.529 22.568C140.529 23.0373 140.391 23.4107 140.113 23.688C139.857 23.944 139.484 24.072 138.993 24.072H128.977Z" fill="white"/>
<path d="M148.169 24.392C147.039 24.392 146.025 24.1787 145.13 23.752C144.255 23.304 143.562 22.7067 143.049 21.96C142.559 21.2133 142.314 20.3707 142.314 19.432C142.314 18.28 142.612 17.3733 143.21 16.712C143.807 16.0293 144.778 15.5387 146.122 15.24C147.466 14.9413 149.268 14.792 151.529 14.792H153.13V17.096H151.561C150.239 17.096 149.183 17.16 148.393 17.288C147.604 17.416 147.039 17.64 146.697 17.96C146.377 18.2587 146.217 18.6853 146.217 19.24C146.217 19.944 146.463 20.52 146.954 20.968C147.444 21.416 148.127 21.64 149.001 21.64C149.705 21.64 150.324 21.48 150.857 21.16C151.412 20.8187 151.849 20.36 152.169 19.784C152.49 19.208 152.65 18.5467 152.65 17.8V14.12C152.65 13.0533 152.415 12.2853 151.945 11.816C151.476 11.3467 150.687 11.112 149.577 11.112C148.959 11.112 148.287 11.1867 147.561 11.336C146.857 11.4853 146.111 11.7413 145.322 12.104C144.916 12.296 144.554 12.3493 144.234 12.264C143.935 12.1787 143.7 12.008 143.529 11.752C143.359 11.4747 143.273 11.176 143.273 10.856C143.273 10.536 143.359 10.2267 143.529 9.928C143.7 9.608 143.988 9.37333 144.393 9.224C145.375 8.81867 146.314 8.53067 147.21 8.36C148.127 8.18933 148.959 8.104 149.706 8.104C151.242 8.104 152.5 8.33867 153.482 8.808C154.484 9.27733 155.231 9.992 155.721 10.952C156.212 11.8907 156.458 13.1067 156.458 14.6V22.28C156.458 22.9413 156.298 23.4533 155.978 23.816C155.658 24.1573 155.199 24.328 154.602 24.328C154.004 24.328 153.535 24.1573 153.193 23.816C152.874 23.4533 152.714 22.9413 152.714 22.28V20.744H152.969C152.82 21.4907 152.521 22.1413 152.074 22.696C151.647 23.2293 151.103 23.6453 150.441 23.944C149.78 24.2427 149.023 24.392 148.169 24.392Z" fill="white"/>
</svg>
