<svg width="242" height="180" viewBox="0 0 242 180" fill="none" xmlns="http://www.w3.org/2000/svg">
<path d="M83.5 52.5L158.5 127.5" stroke="#A4A4A4" stroke-width="4.16667" stroke-linecap="round" stroke-linejoin="round"/>
<path d="M133.5 73.3334H133.542" stroke="#A4A4A4" stroke-width="4.16667" stroke-linecap="round" stroke-linejoin="round"/>
<path d="M104.333 56.6666H141.833C145.148 56.6666 148.328 57.9836 150.672 60.3278C153.016 62.672 154.333 65.8514 154.333 69.1666V106.667M150.671 119.675C148.326 122.018 145.148 123.334 141.833 123.333H100.167C96.8514 123.333 93.672 122.016 91.3278 119.672C88.9836 117.328 87.6666 114.148 87.6666 110.833V69.1666C87.6666 65.6958 89.0833 62.5541 91.3666 60.2875L150.671 119.675Z" stroke="#A4A4A4" stroke-width="4.16667" stroke-linecap="round" stroke-linejoin="round"/>
<path d="M87.6666 102.5L104.333 85.8333C108.2 82.1125 112.967 82.1125 116.833 85.8333L137.667 106.667" stroke="#A4A4A4" stroke-width="4.16667" stroke-linecap="round" stroke-linejoin="round"/>
<path d="M139 91.4167C141.404 91.1708 143.842 92.0917 146 94.1667L154.333 102.5" stroke="#A4A4A4" stroke-width="4.16667" stroke-linecap="round" stroke-linejoin="round"/>
</svg>
